<?xml version="1.0" encoding="UTF-8"?>
<svg id="Layer_2" data-name="Layer 2" xmlns="http://www.w3.org/2000/svg" viewBox="0 0 63.91 20.14">
  <defs>
    <style>
      .cls-1 {
        fill: #244eab;
      }
    </style>
  </defs>
  <g id="Layer_1-2" data-name="Layer 1">
    <g>
      <path class="cls-1" d="M11.22,20.14c-1.82,0-3.67-1.34-3.94-3.59-4.06-.39-7.29-4.08-7.29-8.36S3.62,0,8.09,0s8.09,3.74,8.09,8.19c0,3.67-2.4,7.09-5.56,8.36.1.68.83.7.97.7h3.4v2.89h-3.77ZM13.29,8.19c0-2.89-2.28-5.3-5.17-5.3s-5.22,2.38-5.22,5.3,2.33,5.51,5.22,5.51,5.17-2.48,5.17-5.51Z"/>
      <path class="cls-1" d="M17.5,8.31V.24h2.89v8.06c0,2.92,2.02,5.32,4.57,5.32s4.57-2.38,4.57-5.32V.24h2.89v8.06c0,4.62-3.23,8.21-7.46,8.21s-7.46-3.67-7.46-8.21Z"/>
      <path class="cls-1" d="M31.76,16.28L38.39.24l7.7,16.03h-2.89l-4.69-9.72-3.86,9.72h-2.89Z"/>
      <path class="cls-1" d="M47.41,16.28V.24h2.89v13.14h9.4v2.89h-12.29Z"/>
      <path class="cls-1" d="M61.02,16.28V.24h2.89v16.03h-2.89Z"/>
    </g>
  </g>
</svg>