<?xml version="1.0" encoding="UTF-8"?>
<svg id="Layer_2" data-name="Layer 2" xmlns="http://www.w3.org/2000/svg" viewBox="0 0 102.88 41.73">
  <defs>
    <style>
      .cls-1 {
        fill: #48aeea;
      }
    </style>
  </defs>
  <g id="Layer_1-2" data-name="Layer 1">
    <g>
      <g>
        <path class="cls-1" d="M82.3,38.34h-2.13l1.92-1.92-1.64-1.64-4.63,4.63h-2.21l13.17-13.17v-7.01L67.56,0v10.94l1.89,1.89v5.9l2.23,2.23v5.51l5.8,5.8-9.45,9.45h8.75l1.08-1.08h5.41l2.85-2.85h4.16l-.48.48,1.64,1.64,4.43-4.43h-10.7l-2.85,2.85ZM73.98,25.52v-2.23l4.12,4.12v-3.25l-.81-.81h.01s-5.56-5.57-5.56-5.57v-2.65l6.04,6.04h0s2.08,2.07,2.08,2.07v-3.25l-.45-.45h0s-9.55-9.56-9.55-9.56v-4.39l14.6,14.6v5.1l-5.37,5.37-5.13-5.12Z"/>
        <polygon class="cls-1" points="98.92 23.76 87.64 19.45 87.64 21.5 97.46 25.25 97.93 26.41 100.96 28.79 100.96 29.26 94.69 27.88 94.32 27.79 91.19 27.1 91.19 29.06 92.71 29.4 87.48 34.63 90.19 34.63 94.93 29.89 100.58 31.14 102.88 33.31 102.88 27.86 99.52 25.21 98.92 23.76"/>
        <polygon class="cls-1" points="94.09 20.99 80.32 7.09 80.32 10.36 88.89 19 94.09 20.99"/>
      </g>
      <g>
        <g>
          <path class="cls-1" d="M11.22,38.73c-1.82,0-3.67-1.34-3.94-3.59-4.06-.39-7.29-4.08-7.29-8.36s3.62-8.19,8.09-8.19,8.09,3.74,8.09,8.19c0,3.67-2.4,7.09-5.56,8.36.1.68.83.7.97.7h3.4v2.89h-3.77ZM13.29,26.78c0-2.89-2.28-5.3-5.17-5.3s-5.22,2.38-5.22,5.3,2.33,5.51,5.22,5.51,5.17-2.48,5.17-5.51Z"/>
          <path class="cls-1" d="M17.5,26.9v-8.06h2.89v8.06c0,2.92,2.02,5.32,4.57,5.32s4.57-2.38,4.57-5.32v-8.06h2.89v8.06c0,4.62-3.23,8.21-7.46,8.21s-7.46-3.67-7.46-8.21Z"/>
          <path class="cls-1" d="M31.76,34.87l6.63-16.03,7.7,16.03h-2.89l-4.69-9.72-3.86,9.72h-2.89Z"/>
          <path class="cls-1" d="M47.41,34.87v-16.03h2.89v13.14h9.4v2.89h-12.29Z"/>
          <path class="cls-1" d="M61.02,34.87v-16.03h2.89v16.03h-2.89Z"/>
        </g>
        <g>
          <polygon class="cls-1" points="19.64 39.84 17.48 39.85 17.47 38.41 19.45 38.4 19.45 38.03 17.47 38.04 17.46 36.7 19.59 36.69 19.58 36.31 17.32 36.32 17.32 36.32 17.04 36.32 17.06 40.23 17.48 40.23 17.48 40.23 19.64 40.22 19.64 39.84"/>
          <path class="cls-1" d="M22.52,38.02c-.09-.17-.21-.3-.37-.4-.16-.1-.34-.15-.55-.14s-.39.05-.55.14c-.14.08-.25.19-.35.33v-.4s-.41,0-.41,0v2.67s.42,0,.42,0v-1.58s0,0,0,0c0-.15.03-.29.1-.4s.16-.21.28-.28c.12-.07.25-.1.4-.1.23,0,.41.07.55.22.14.15.21.33.21.56v1.57s.41,0,.41,0v-1.64c0-.2-.06-.38-.15-.54Z"/>
          <path class="cls-1" d="M25.61,38c-.09-.17-.21-.3-.37-.4-.16-.1-.34-.15-.55-.14-.2,0-.39.05-.55.14-.14.08-.25.19-.35.33v-.4s-.41,0-.41,0v2.67s.42,0,.42,0v-1.58s0,0,0,0c0-.15.03-.29.1-.4.07-.12.16-.21.28-.28.12-.07.25-.1.4-.1.23,0,.41.07.55.22.14.15.21.33.21.56v1.57s.41,0,.41,0v-1.64c0-.2-.06-.38-.15-.55Z"/>
          <path class="cls-1" d="M29.02,40.17v-2.67s-.42,0-.42,0v.45s-.01-.03-.02-.04c-.1-.15-.24-.26-.4-.34-.16-.08-.34-.12-.55-.12-.25,0-.47.06-.67.19-.2.12-.36.29-.47.5-.12.21-.17.45-.17.71,0,.26.06.5.18.7.12.21.28.37.48.5.2.12.43.18.68.18.2,0,.39-.04.55-.13.16-.08.29-.2.39-.35.01-.02.02-.03.02-.05v.46s.41,0,.41,0ZM28.39,39.57c-.17.19-.39.28-.67.28-.19,0-.35-.04-.5-.13s-.27-.21-.35-.36-.13-.33-.13-.52.04-.37.13-.52c.08-.15.2-.27.34-.36s.31-.13.5-.13c.19,0,.35.04.49.12s.25.2.33.35c.08.15.12.33.12.53,0,.3-.08.55-.25.73Z"/>
          <path class="cls-1" d="M30.03,36.35c-.08,0-.14.03-.19.08-.05.05-.08.12-.08.2,0,.08.03.14.08.2.05.06.12.08.19.08.08,0,.15-.03.2-.09.05-.06.08-.12.08-.2,0-.08-.03-.15-.08-.2-.05-.05-.12-.08-.2-.08Z"/>
          <path class="cls-1" d="M29.84,37.49l.02,3.01c0,.16-.04.28-.13.36-.09.08-.2.11-.33.12-.09,0-.17-.01-.24-.04-.07-.03-.13-.08-.19-.15l-.27.26c.09.1.19.17.31.23.11.05.25.08.4.08.15,0,.29-.03.42-.1.13-.07.23-.16.31-.29.08-.13.12-.28.11-.47l-.02-3h-.4Z"/>
          <path class="cls-1" d="M32.89,37.58c-.19-.11-.41-.16-.65-.16-.26,0-.49.06-.7.19-.21.12-.37.29-.49.5-.12.21-.18.45-.18.71,0,.27.06.5.19.72.12.21.29.38.51.5.21.12.45.18.72.18.21,0,.41-.04.6-.12.18-.08.34-.2.46-.35l-.26-.26c-.09.12-.21.21-.35.27-.14.06-.28.09-.44.09-.2,0-.38-.04-.53-.13-.15-.09-.27-.21-.36-.36-.06-.11-.09-.24-.11-.37h2.18c.01-.07.02-.11.02-.15,0-.04,0-.08,0-.11,0-.25-.06-.48-.17-.67-.11-.19-.26-.35-.45-.46ZM31.73,37.92c.14-.09.31-.13.51-.13.18,0,.34.04.47.12.13.08.23.19.3.33.05.11.08.24.09.38h-1.81c.02-.12.05-.24.1-.34.08-.15.19-.27.34-.35Z"/>
          <path class="cls-1" d="M36.46,38.49c0-.22-.05-.41-.14-.57-.09-.16-.21-.29-.37-.38-.16-.09-.34-.14-.55-.14s-.39.05-.55.14c-.14.08-.25.19-.35.33v-1.76s-.41,0-.41,0l.02,4.03h.4s0-1.58,0-1.58h0c0-.15.03-.29.1-.4s.16-.21.28-.28.25-.1.4-.1c.23,0,.41.07.55.22.14.14.21.33.21.56v1.57s.41,0,.41,0v-1.64Z"/>
        </g>
      </g>
    </g>
  </g>
</svg>
