<?xml version="1.0" encoding="UTF-8"?>
<svg id="Layer_2" data-name="Layer 2" xmlns="http://www.w3.org/2000/svg" viewBox="0 0 35.32 41.73">
  <defs>
    <style>
      .cls-1 {
        fill: #48aeea;
      }
    </style>
  </defs>
  <g id="Layer_1-2" data-name="Layer 1">
    <g>
      <path class="cls-1" d="M14.75,38.34h-2.13l1.92-1.92-1.64-1.64-4.63,4.63h-2.21l13.17-13.17v-7.01L0,0v10.94l1.89,1.89v5.9l2.23,2.23v5.51l5.8,5.8L.47,41.73h8.75l1.08-1.08h5.41l2.85-2.85h4.16l-.48.48,1.64,1.64,4.43-4.43h-10.7l-2.85,2.85ZM6.43,25.52v-2.23l4.12,4.12v-3.25l-.81-.81h.01s-5.56-5.57-5.56-5.57v-2.65l6.04,6.04h0s2.08,2.07,2.08,2.07v-3.25l-.45-.45h0S2.31,9.98,2.31,9.98v-4.39l14.6,14.6v5.1l-5.37,5.37-5.13-5.12Z"/>
      <polygon class="cls-1" points="31.36 23.76 20.09 19.45 20.09 21.5 29.9 25.25 30.37 26.41 33.4 28.79 33.4 29.26 27.13 27.88 26.76 27.79 23.63 27.1 23.63 29.06 25.15 29.4 19.92 34.63 22.63 34.63 27.37 29.89 33.02 31.14 35.32 33.31 35.32 27.86 31.96 25.21 31.36 23.76"/>
      <polygon class="cls-1" points="26.54 20.99 12.76 7.09 12.76 10.36 21.33 19 26.54 20.99"/>
    </g>
  </g>
</svg>
